:version 1.10
:name ASF
:units
  mass 1
  length 1
  angle deg
:documentation
  ASF file generated by Kaydara
:root
  axis xyz
  order  tx ty tz rx ry rz
  position 0 0 0
  orientation 0 0 0
:bonedata
  begin
    id 1
    name RightUpLegDummy
    direction -0.65628 -0.754516 0.00165102
    length 4.76918
    axis 0 0 0 xyz
  end
  begin
    id 2
    name RightUpLeg
    direction -0.145584 -0.923362 0.355256
    length 17.9961
    axis -24.7611 -13.1006 1.78531 xyz
    dof rx ry rz
  end
  begin
    id 3
    name RightLeg
    direction 0.263379 0.172355 -0.949171
    length 13.3386
    axis 89.6202 -21.1929 12.3855 xyz
    dof rx ry rz
  end
  begin
    id 4
    name RightFoot
    direction 0.224283 -0.968777 -0.105675
    length 5.86697
    axis 56.995 -39.6905 17.3365 xyz
    dof rx ry rz
  end
  begin
    id 5
    name RightToes
    direction -0.0806345 -0.9037 0.420506
    length 4.75197
    axis 146.825 -39.7828 17.6019 xyz
    dof rx ry rz
  end
  begin
    id 6
    name SpineDummy
    direction -3.39852e-014 1 9.33296e-014
    length 8.13779
    axis 0 0 0 xyz
  end
  begin
    id 7
    name Spine
    direction -0.156609 0.733703 0.661176
    length 7.14978
    axis 41.2365 5.68757 17.0844 xyz
    dof rx ry rz
  end
  begin
    id 8
    name Spine1
    direction 0 0 0
    length 0
    axis 42.8809 47.8308 -3.36039 xyz
    dof rx ry rz
  end
  begin
    id 9
    name HEadDummy
    direction 0.546431 0.701947 0.456819
    length 3.55512
    axis 42.8809 47.8308 -3.36039 xyz
  end
  begin
    id 10
    name HEad
    direction 0.23444 0.828559 0.508457
    length 7.35827
    axis 51.1864 49.2662 27.4903 xyz
    dof rx ry rz
  end
  begin
    id 11
    name LeftShoulder1Dummy
    direction 0.431183 0.475873 -0.766568
    length 2.49352
    axis 42.8809 47.8308 -3.36039 xyz
  end
  begin
    id 12
    name LeftShoulder1
    direction 0.268187 -0.383402 -0.883786
    length 4.48604
    axis -119.517 0.106469 35.1736 xyz
    dof rx ry rz
  end
  begin
    id 13
    name LeftArm
    direction 0.380567 -0.703221 -0.600541
    length 10.1142
    axis -5.41825 36.2925 7.8293 xyz
    dof rx ry rz
  end
  begin
    id 14
    name LeftForeArm
    direction 0.541071 -0.732356 -0.413396
    length 9.39839
    axis 4.65387 33.7604 7.81644 xyz
    dof rx ry rz
  end
  begin
    id 15
    name LeftHand
    direction 0.847511 -0.389379 -0.360707
    length 3.66142
    axis 7.65593 21.1436 -24.6758 xyz
    dof rx ry rz
  end
  begin
    id 16
    name RightShoulderDummy
    direction -0.692546 0.541855 0.476208
    length 2.49352
    axis 42.8809 47.8308 -3.36039 xyz
  end
  begin
    id 17
    name RightShoulder
    direction -0.870808 -0.316653 0.376065
    length 4.48602
    axis 141.571 51.133 -100.254 xyz
    dof rx ry rz
  end
  begin
    id 18
    name RightArm
    direction 0.366897 -0.87275 0.322015
    length 10.1142
    axis 92.3258 71.2036 138.917 xyz
    dof rx ry rz
  end
  begin
    id 19
    name RightForeArm
    direction 0.702487 -0.694568 0.155197
    length 9.39835
    axis 153.863 41.5092 -176.604 xyz
    dof rx ry rz
  end
  begin
    id 20
    name RightHand
    direction 0.79502 -0.601276 0.0800636
    length 3.66142
    axis 154.247 4.59222 142.9 xyz
    dof rx ry rz
  end
  begin
    id 21
    name LeftUpLegDummy
    direction 0.65628 -0.754516 0.00165102
    length 4.76919
    axis 0 0 0 xyz
  end
  begin
    id 22
    name LeftUpLeg
    direction -0.1277 -0.689368 0.713067
    length 17.9961
    axis -48.3385 -17.8675 0.791927 xyz
    dof rx ry rz
  end
  begin
    id 23
    name LeftLeg
    direction 0.109849 -0.991246 -0.0732378
    length 13.3386
    axis -2.05791 -7.30784 1.72042 xyz
    dof rx ry rz
  end
  begin
    id 24
    name LeftFoot
    direction 0.0448355 -0.272614 0.961078
    length 5.86697
    axis -18.7733 -7.89606 10.2113 xyz
    dof rx ry rz
  end
  begin
    id 25
    name LeftToes
    direction -0.18506 0.293668 0.937823
    length 4.75197
    axis 71.2267 -7.89606 10.2113 xyz
    dof rx ry rz
  end
:hierarchy
  begin
    root RightUpLegDummy SpineDummy LeftUpLegDummy
    RightUpLegDummy RightUpLeg
    RightUpLeg RightLeg
    RightLeg RightFoot
    RightFoot RightToes
    SpineDummy Spine
    Spine Spine1
    Spine1 HEadDummy LeftShoulder1Dummy RightShoulderDummy
    HEadDummy HEad
    LeftShoulder1Dummy LeftShoulder1
    LeftShoulder1 LeftArm
    LeftArm LeftForeArm
    LeftForeArm LeftHand
    RightShoulderDummy RightShoulder
    RightShoulder RightArm
    RightArm RightForeArm
    RightForeArm RightHand
    LeftUpLegDummy LeftUpLeg
    LeftUpLeg LeftLeg
    LeftLeg LeftFoot
    LeftFoot LeftToes
  end

:SAMPLES-PER-SECOND 30
:FULLY-SPECIFIED
:DEGREES
128
root  15.9724 39.5627 20.1298 179.377 28.1595 -178.745
RightUpLeg  22.2993 8.58553 2.85098
RightLeg  -81.9002 -12.396 -2.13298
RightFoot  30.7485 1.06426 -12.6666
RightToes  -1.27222e-014 -6.36111e-015 6.36111e-015
Spine  -39.8334 -9.69409 -5.38211
Spine1  -1.55907 -10.0591 42.0829
HEad  25.4345 -22.4738 -17.6027
LeftShoulder1  6.36111e-015 -1.33558e-015 6.49777e-015
LeftArm  48.4768 16.6462 -28.7692
LeftForeArm  -59.0891 -57.6264 54.2939
LeftHand  -2.49479 -5.27072 -13.965
RightShoulder  -4.77083e-015 -6.36111e-015 -3.18055e-015
RightArm  78.668 -42.8784 -14.815
RightForeArm  -43.4905 20.4905 -44.6173
RightHand  -1.71142 6.1403 8.78278
LeftUpLeg  26.7962 8.59987 17.0134
LeftLeg  18.0115 -4.24011 0.0056048
LeftFoot  6.44286 4.67468 -13.044
LeftToes  9.54166e-015 -1.91609e-011 -2.3878e-011
129
root  16.7577 40.2692 19.4431 178.209 34.5306 -179.217
RightUpLeg  22.7537 7.99286 1.56219
RightLeg  -83.7691 -12.7901 -0.0189559
RightFoot  35.5876 1.37147 -13.9988
RightToes  -1.27222e-014 -6.36111e-015 6.36111e-015
Spine  -39.7801 -10.4039 -6.81615
Spine1  -0.358029 -10.0476 41.8117
HEad  29.0589 -20.5078 -17.4976
LeftShoulder1  6.36111e-015 -1.33558e-015 6.49777e-015
LeftArm  46.9665 15.8037 -33.641
LeftForeArm  -58.82 -58.9275 56.1115
LeftHand  -2.51734 -5.29148 -14.5524
RightShoulder  -4.77083e-015 -6.36111e-015 -3.18055e-015
RightArm  80.9016 -44.6603 -16.1698
RightForeArm  -43.7845 20.9399 -45.5548
RightHand  -1.30147 4.08583 6.48431
LeftUpLeg  26.631 12.5355 16.8937
LeftLeg  9.9602 -7.8113 -1.37497
LeftFoot  6.44384 4.77706 -13.3269
LeftToes  9.54166e-015 -1.91609e-011 -2.3878e-011
130
root  17.4978 40.6739 18.8008 176.686 40.4189 -179.379
RightUpLeg  24.4788 7.32161 0.947646
RightLeg  -86.5826 -12.9871 2.3059
RightFoot  34.101 2.1586 -14.6498
RightToes  -1.27222e-014 -6.36111e-015 6.36111e-015
Spine  -39.2697 -10.9894 -7.38383
Spine1  1.34545 -10.351 41.0853
HEad  29.7914 -18.9414 -16.214
LeftShoulder1  6.36111e-015 -1.33558e-015 6.49777e-015
LeftArm  46.3069 12.8259 -37.4571
LeftForeArm  -60.9151 -59.8193 59.9511
LeftHand  -2.39081 -4.74158 -14.9288
RightShoulder  -4.77083e-015 -6.36111e-015 -3.18055e-015
RightArm  81.3733 -45.4367 -17.0219
RightForeArm  -44.0549 20.0959 -44.5078
RightHand  -0.943867 2.77985 4.49824
LeftUpLeg  27.1664 15.6985 17.8566
LeftLeg  -0.196378 -9.95122 -1.41652
LeftFoot  5.54222 5.35145 -15.2781
LeftToes  9.54166e-015 -1.91609e-011 -2.3878e-011
131
root  18.2 40.702 18.1538 176.689 45.7089 -178.64
RightUpLeg  25.8252 6.30742 1.36807
RightLeg  -89.3242 -12.3739 0.96432
RightFoot  31.399 2.5846 -14.6917
RightToes  -1.27222e-014 -6.36111e-015 6.36111e-015
Spine  -39.4094 -11.0503 -6.84866
Spine1  2.11991 -10.8273 40.6067
HEad  29.8962 -16.9478 -15.1177
LeftShoulder1  6.36111e-015 -1.33558e-015 6.49777e-015
LeftArm  46.9148 9.24861 -39.6843
LeftForeArm  -65.3166 -60.0801 65.8218
LeftHand  -2.43692 -4.80304 -15.8438
RightShoulder  -4.77083e-015 -6.36111e-015 -3.18055e-015
RightArm  80.8584 -45.6425 -17.3824
RightForeArm  -43.7676 19.5462 -43.4404
RightHand  -0.967406 3.02875 4.39879
LeftUpLeg  26.4398 17.4185 19.1282
LeftLeg  -11.0081 -9.94305 -0.949047
LeftFoot  6.39202 6.25783 -17.4307
LeftToes  9.54166e-015 -1.91609e-011 -2.3878e-011
132
root  18.9025 40.3248 17.5413 178.124 51.6264 -177.771
RightUpLeg  25.8224 5.80405 2.33978
RightLeg  -91.0396 -11.8864 -1.23368
RightFoot  29.4394 2.66049 -14.436
RightToes  -1.27222e-014 -6.36111e-015 6.36111e-015
Spine  -40.228 -11.0328 -6.81678
Spine1  2.03032 -11.0046 40.3145
HEad  30.3055 -13.9197 -14.4417
LeftShoulder1  6.36111e-015 -1.33558e-015 6.49777e-015
LeftArm  48.3123 6.03605 -40.7843
LeftForeArm  -70.3791 -59.5577 71.865
LeftHand  -2.60456 -5.31064 -17.4099
RightShoulder  -4.77083e-015 -6.36111e-015 -3.18055e-015
RightArm  80.1779 -45.114 -17.0089
RightForeArm  -43.7184 19.8412 -43.8395
RightHand  -1.31212 4.33192 6.27803
LeftUpLeg  24.3901 19.6876 21.3596
LeftLeg  -21.1587 -8.435 -1.02332
LeftFoot  8.11683 6.53061 -17.3798
LeftToes  9.54166e-015 -1.91609e-011 -2.3878e-011
133
root  19.5496 39.5881 16.9523 178.653 58.6208 -177.493
RightUpLeg  26.2816 7.12988 3.18399
RightLeg  -91.1972 -11.9136 -0.838287
RightFoot  25.0561 3.52526 -14.8024
RightToes  -1.27222e-014 -6.36111e-015 6.36111e-015
Spine  -39.8746 -11.2184 -7.56288
Spine1  1.87489 -10.8137 39.6991
HEad  30.0753 -9.50969 -13.8854
LeftShoulder1  6.36111e-015 -1.33558e-015 6.49777e-015
LeftArm  49.9929 3.09369 -41.3426
LeftForeArm  -74.9351 -58.66 77.2472
LeftHand  -2.75264 -5.72718 -19.5695
RightShoulder  -4.77083e-015 -6.36111e-015 -3.18055e-015
RightArm  79.0227 -43.48 -15.2817
RightForeArm  -44.712 20.3548 -45.4778
RightHand  -1.70941 5.88823 9.08652
LeftUpLeg  22.7958 17.63 22.3844
LeftLeg  -29.7415 -3.93765 -6.21413
LeftFoot  8.91448 6.65529 -17.3512
LeftToes  9.54166e-015 -1.91609e-011 -2.3878e-011
134
root  20.0816 38.5968 16.2199 174.537 64.0228 -178.164
RightUpLeg  31.096 9.09749 2.2033
RightLeg  -90.3259 -12.1391 0.257256
RightFoot  17.0539 5.16428 -15.8773
RightToes  -1.27222e-014 -6.36111e-015 6.36111e-015
Spine  -34.8457 -12.1419 -7.68423
Spine1  1.24361 -11.42 39.3703
HEad  28.3315 -3.58725 -13.7345
LeftShoulder1  6.36111e-015 -1.33558e-015 6.49777e-015
LeftArm  51.5434 0.00174907 -42.0014
LeftForeArm  -77.3258 -58.3032 80.5657
LeftHand  -2.90413 -6.26247 -21.6193
RightShoulder  -4.77083e-015 -6.36111e-015 -3.18055e-015
RightArm  76.992 -41.0109 -12.9517
RightForeArm  -46.3956 20.491 -47.2283
RightHand  -2.01663 7.28789 11.8678
LeftUpLeg  24.5592 12.4622 21.3641
LeftLeg  -36.4846 0.110268 -11.9892
LeftFoot  9.10724 7.57844 -19.621
LeftToes  9.54166e-015 -1.91609e-011 -2.3878e-011
135
root  20.6868 37.4796 15.2394 175.369 67.6651 -174.024
RightUpLeg  35.7959 11.2394 3.45447
RightLeg  -88.0181 -12.478 0.757511
RightFoot  8.9258 6.133 -16.1814
RightToes  -1.27222e-014 -6.36111e-015 6.36111e-015
Spine  -32.2901 -12.1632 -5.85509
Spine1  1.96037 -12.5167 40.1843
HEad  26.0744 3.20503 -14.1756
LeftShoulder1  6.36111e-015 -1.33558e-015 6.49777e-015
LeftArm  52.4838 -2.76339 -43.4316
LeftForeArm  -75.7083 -59.2033 79.3839
LeftHand  -3.05343 -6.98654 -22.559
RightShoulder  -4.77083e-015 -6.36111e-015 -3.18055e-015
RightArm  74.7512 -38.6313 -11.9548
RightForeArm  -47.5597 20.5254 -48.3981
RightHand  -2.19211 8.29884 13.8077
LeftUpLeg  24.601 12.1175 23.7254
LeftLeg  -37.5052 -2.71546 -10.5095
LeftFoot  8.51253 8.26849 -21.6941
LeftToes  9.54166e-015 -1.91609e-011 -2.3878e-011
136
root  21.5526 36.494 13.9579 179.754 69.5449 -167.717
RightUpLeg  38.3219 12.8258 4.53599
RightLeg  -82.9021 -12.5053 -1.3001
RightFoot  4.23862 5.18811 -13.2376
RightToes  -1.27222e-014 -6.36111e-015 6.36111e-015
Spine  -32.8473 -12.8566 -4.95236
Spine1  3.66077 -13.8917 43.1702
HEad  25.7355 9.3617 -14.2336
LeftShoulder1  6.36111e-015 -1.33558e-015 6.49777e-015
LeftArm  51.9478 -3.58538 -45.1913
LeftForeArm  -70.2732 -60.8189 73.7276
LeftHand  -3.19546 -7.77583 -22.3976
RightShoulder  -4.77083e-015 -6.36111e-015 -3.18055e-015
RightArm  73.7938 -37.3621 -13.7784
RightForeArm  -47.4474 21.227 -49.5053
RightHand  -2.23248 8.52814 14.3527
LeftUpLeg  22.9122 13.9486 25.6281
LeftLeg  -33.4508 -7.44635 -6.37287
LeftFoot  7.43598 7.57039 -20.454
LeftToes  9.54166e-015 -1.91609e-011 -2.3878e-011
137
root  22.6314 35.7355 12.4985 -177.629 71.2253 -164.447
RightUpLeg  37.3165 14.9799 3.0232
RightLeg  -73.4007 -11.0721 -6.2386
RightFoot  5.0624 2.46515 -7.7751
RightToes  -1.27222e-014 -6.36111e-015 6.36111e-015
Spine  -33.6458 -15.3509 -7.435
Spine1  4.1199 -15.0667 48.0769
HEad  28.2329 13.6532 -12.8353
LeftShoulder1  6.36111e-015 -1.33558e-015 6.49777e-015
LeftArm  49.4486 -1.41264 -45.6299
LeftForeArm  -65.5702 -62.0521 69.1904
LeftHand  -3.39956 -8.88347 -22.0811
RightShoulder  -4.77083e-015 -6.36111e-015 -3.18055e-015
RightArm  75.336 -37.6618 -19.0283
RightForeArm  -46.9416 22.767 -51.6666
RightHand  -2.1629 7.69689 13.8681
LeftUpLeg  20.7888 18.751 25.962
LeftLeg  -26.2077 -11.9221 -1.02134
LeftFoot  7.95077 6.6702 -17.8216
LeftToes  9.54166e-015 -1.91609e-011 -2.3878e-011
138
root  23.7316 35.0657 10.9558 179.986 74.3346 -165.579
RightUpLeg  33.691 19.2354 -0.980636
RightLeg  -60.8896 -6.8598 -11.6298
RightFoot  13.0629 -0.175265 -5.81708
RightToes  -1.27222e-014 -6.36111e-015 6.36111e-015
Spine  -31.2611 -18.2467 -11.8654
Spine1  2.21277 -15.3384 52.3433
HEad  30.9549 16.2218 -10.7566
LeftShoulder1  6.36111e-015 -1.33558e-015 6.49777e-015
LeftArm  46.5639 2.37549 -44.046
LeftForeArm  -67.3558 -62.2307 71.8165
LeftHand  -3.63884 -10.187 -22.3183
RightShoulder  -4.77083e-015 -6.36111e-015 -3.18055e-015
RightArm  79.1314 -38.8702 -27.3775
RightForeArm  -48.1649 23.8641 -55.0811
RightHand  -2.05624 6.41441 13.3264
LeftUpLeg  19.2063 17.0719 21.9165
LeftLeg  -16.4744 -9.58786 -0.807663
LeftFoot  11.1422 6.79505 -16.7618
LeftToes  9.54166e-015 -1.91609e-011 -2.3878e-011
139
root  24.7524 34.2073 9.39336 170.165 78.8663 -171.23
RightUpLeg  30.4759 25.4692 -5.43588
RightLeg  -48.8369 -2.1756 -13.2954
RightFoot  24.4377 -0.287028 -9.33565
RightToes  -1.27222e-014 -6.36111e-015 6.36111e-015
Spine  -25.2933 -19.3208 -15.4084
Spine1  0.378229 -14.8557 53.0329
HEad  30.9865 18.7136 -9.57769
LeftShoulder1  6.36111e-015 -1.33558e-015 6.49777e-015
LeftArm  45.1423 4.78415 -41.5237
LeftForeArm  -73.5981 -60.5774 78.2453
LeftHand  -3.79381 -11.1306 -23.1053
RightShoulder  -4.77083e-015 -6.36111e-015 -3.18055e-015
RightArm  82.4395 -39.4351 -35.8398
RightForeArm  -52.0492 22.7331 -57.8635
RightHand  -1.99911 5.64077 13.1689
LeftUpLeg  20.1522 15.9727 18.9463
LeftLeg  -4.69191 -7.06323 -1.07222
LeftFoot  14.2523 6.19837 -14.2279
LeftToes  9.54166e-015 -1.91609e-011 -2.3878e-011
140
root  25.689 33.219 7.86184 153.864 82.9901 177.779
RightUpLeg  27.3016 30.5755 -9.32673
RightLeg  -37.8952 -2.84563 -9.51579
RightFoot  30.5018 1.62698 -13.3224
RightToes  -1.27222e-014 -6.36111e-015 6.36111e-015
Spine  -20.7209 -18.9117 -16.4483
Spine1  1.25283 -14.6878 50.8669
HEad  29.4221 22.3378 -9.30532
LeftShoulder1  6.36111e-015 -1.33558e-015 6.49777e-015
LeftArm  44.7411 4.99342 -39.4764
LeftForeArm  -77.6666 -58.3452 81.2132
LeftHand  -3.86714 -11.6801 -23.9292
RightShoulder  -4.77083e-015 -6.36111e-015 -3.18055e-015
RightArm  81.1594 -38.4042 -39.0784
RightForeArm  -56.2992 20.2249 -57.9751
RightHand  -1.9964 5.4611 13.2711
LeftUpLeg  22.8762 18.3268 18.9875
LeftLeg  6.33654 -4.34945 -0.428495
LeftFoot  14.2536 3.5713 -8.25281
LeftToes  9.54166e-015 -1.91609e-011 -2.3878e-011
